<?xml version="1.0" encoding="UTF-8"?>
<svg width="166px" height="34px" viewBox="0 0 166 34" version="1.1" xmlns="http://www.w3.org/2000/svg" xmlns:xlink="http://www.w3.org/1999/xlink">
    <title>logo</title>
    <g id="Mobile-Web" stroke="none" stroke-width="1" fill="none" fill-rule="evenodd">
        <g id="header" transform="translate(-20.000000, -56.000000)" fill="#FFFFFF" fill-rule="nonzero">
            <g id="Group" transform="translate(20.000000, 53.000000)">
                <g id="logo" transform="translate(0.000000, 3.000000)">
                    <path d="M20.9781495,14.062038 L21.2681488,13.7689794 C21.9525257,13.0772471 22.9386042,12.7724988 23.913115,12.8779781 C24.1103038,12.8779781 24.2031144,12.8779781 24.4003031,12.8779781 C25.3863816,12.7841885 26.3607579,13.0772471 27.0451348,13.7689794 C27.7296463,14.4605759 28.0312133,15.3515772 27.9268351,16.3480579 C27.8340245,17.3444026 28.2168344,18.3291935 29.0057241,19.02079 C30.1772892,20.0172706 31.8478791,19.9117913 33.0310119,18.9270004 C34.3070897,17.7430764 34.3070897,15.7501151 33.1238224,14.5660552 C32.4394455,13.8744588 31.5577453,13.5697105 30.6761795,13.6751898 C29.7944793,13.7689794 28.8085353,13.3821313 28.1240239,12.7841885 C27.4396469,12.0925921 27.1379454,11.2015907 27.2424581,10.205246 C27.3352687,9.31424469 27.0451348,8.4233793 26.3607579,7.73164692 C25.676381,7.04005047 24.7946807,6.73516627 23.913115,6.84078153 C23.0314148,6.93457114 22.0453363,6.54758704 21.3609594,5.9497802 C20.6764479,5.25818375 20.3748809,4.36719603 20.4792591,3.37074256 C20.5720697,2.37430268 20.1892598,1.38957971 19.4005046,0.697928887 C18.228805,-0.298524582 16.5583496,-0.193018064 15.3750823,0.791704907 C14.0990045,1.97572401 14.0990045,3.96861736 15.2822718,5.15256849 C15.9666487,5.84430087 16.8483489,6.14904915 17.7299147,6.04356982 C18.6116149,5.9497802 19.5976934,6.33662838 20.2820703,6.93457114 C20.9665818,7.62616759 21.2681488,8.62264824 21.1637706,9.60730325 C21.1637706,9.8065722 21.1637706,9.90036181 21.1637706,10.0996308 C21.2565811,11.0961114 20.9665818,12.0809023 20.2820703,12.7724988 L19.8876927,12.9717677 C19.2031813,13.6635001 18.3216156,13.9682484 17.3355371,13.8627691 C16.3494586,13.7572897 15.3750823,14.1558276 14.6905709,14.9529034 C13.7046269,16.1369633 13.8090052,17.8250404 14.7833814,19.02079 C15.955081,20.3103292 17.927238,20.3103292 19.0988031,19.1145796 C19.7833145,18.4229832 20.0848815,17.5319818 19.9805033,16.6411164 C19.8992604,15.6446358 20.293638,14.7536345 20.9781495,14.062038 Z" id="Path"></path>
                    <path d="M3.00003319,20 C4.65690229,20 6,18.6569007 6,16.9999336 C6,15.3430993 4.65690229,14 3.00003319,14 C1.34316409,14 0,15.3430993 0,16.9999336 C0,18.6569007 1.34316409,20 3.00003319,20 Z" id="Path"></path>
                    <path d="M10,27 C11.6567977,27 13,25.6567977 13,24 C13,22.3432023 11.6567977,21 10,21 C8.34306957,21 7,22.3432023 7,24 C7,25.6567977 8.34306957,27 10,27 Z" id="Path"></path>
                    <path d="M17,34 C18.6567977,34 20,32.6569304 20,31 C20,29.3432023 18.6567977,28 17,28 C15.3430696,28 14,29.3432023 14,31 C14,32.6569304 15.3430696,34 17,34 Z" id="Path"></path>
                    <path d="M10,13 C11.6567977,13 13,11.6569304 13,10 C13,8.34320234 11.6567977,7 10,7 C8.34306957,7 7,8.34320234 7,10 C7,11.6569304 8.34306957,13 10,13 Z" id="Path"></path>
                    <path d="M24,27 C25.6567977,27 27,25.6567977 27,24 C27,22.3432023 25.6567977,21 24,21 C22.3430696,21 21,22.3432023 21,24 C21,25.6567977 22.3430696,27 24,27 Z" id="Path"></path>
                </g>
                <path d="M49.221,26.629 C51.429,26.629 52.8243333,26.5523333 53.407,26.399 L53.407,26.399 L53.407,22.972 L52.625,23.018 C51.6743333,23.0793333 51.084,23.11 50.854,23.11 C50.2253333,23.11 49.796,23.0065 49.566,22.7995 C49.336,22.5925 49.221,22.1746667 49.221,21.546 L49.221,21.546 L49.221,16.716 L53.407,16.716 L53.407,13.749 L49.221,13.749 L49.221,10.023 L45.725,10.023 L45.725,13.749 L44,13.749 L44,16.716 L45.725,16.716 L45.725,21.868 C45.725,22.7726667 45.7825,23.547 45.8975,24.191 C46.0125,24.835 46.3268333,25.4023333 46.8405,25.893 C47.3541667,26.3836667 48.1476667,26.629 49.221,26.629 Z M57.915,26.629 L57.915,20.833 C57.915,19.8056667 58.1833333,18.9201667 58.72,18.1765 C59.2566667,17.4328333 60.1153333,17.061 61.296,17.061 C62.0933333,17.061 62.8676667,17.1606667 63.619,17.36 L63.619,17.36 L64.171,14.048 C63.6803333,13.9406667 63.2778333,13.8601667 62.9635,13.8065 C62.6491667,13.7528333 62.285,13.726 61.871,13.726 C60.8283333,13.726 60.0425,13.8755 59.5135,14.1745 C58.9845,14.4735 58.5283333,14.9526667 58.145,15.612 L58.145,15.612 L57.915,15.612 L57.915,13.726 L54.419,13.726 L54.419,26.629 L57.915,26.629 Z M70.818,26.629 C72.888,26.629 74.498,26.2341667 75.648,25.4445 C76.798,24.6548333 77.465,23.5546667 77.649,22.144 L77.649,22.144 L74.245,22.144 C73.8923333,23.0946667 72.75,23.57 70.818,23.57 C69.6986667,23.57 68.8591667,23.3591667 68.2995,22.9375 C67.7398333,22.5158333 67.3986667,21.868 67.276,20.994 L67.276,20.994 L77.695,20.994 C77.741,20.6873333 77.764,20.35 77.764,19.982 C77.764,19.0006667 77.5685,18.05 77.1775,17.13 C76.7865,16.21 76.1233333,15.4356667 75.188,14.807 C74.0073333,13.9943333 72.5506667,13.588 70.818,13.588 C68.61,13.588 66.9003333,14.1515 65.689,15.2785 C64.4776667,16.4055 63.872,18.0193333 63.872,20.12 C63.872,22.2513333 64.47,23.869 65.666,24.973 C66.862,26.077 68.5793333,26.629 70.818,26.629 Z M74.222,18.671 L67.414,18.671 C67.8126667,17.3216667 68.9473333,16.647 70.818,16.647 C71.9373333,16.647 72.7385,16.831 73.2215,17.199 C73.7045,17.567 74.038,18.0576667 74.222,18.671 L74.222,18.671 Z M82.088,26.629 L82.088,20.396 C82.088,19.3073333 82.3256667,18.4256667 82.801,17.751 C83.2763333,17.0763333 84.1963333,16.739 85.561,16.739 C86.573,16.739 87.3128333,16.9345 87.7805,17.3255 C88.2481667,17.7165 88.5203333,18.1305 88.597,18.5675 C88.6736667,19.0045 88.712,19.5373333 88.712,20.166 L88.712,20.166 L88.712,26.629 L92.185,26.629 L92.185,20.166 C92.185,19.1846667 92.0776667,18.2378333 91.863,17.3255 C91.6483333,16.4131667 91.127,15.5851667 90.299,14.8415 C89.471,14.0978333 88.229,13.726 86.573,13.726 C85.4843333,13.726 84.6065,13.887 83.9395,14.209 C83.2725,14.531 82.709,14.9986667 82.249,15.612 L82.249,15.612 L82.088,15.612 L82.088,13.726 L78.592,13.726 L78.592,26.629 L82.088,26.629 Z M107.549,26.629 L107.549,10 L104.03,10 L104.03,15.612 L103.846,15.612 C102.895333,14.3546667 101.316,13.726 99.108,13.726 C96.7466667,13.726 95.152,14.4121667 94.324,15.7845 C93.496,17.1568333 93.082,18.6173333 93.082,20.166 C93.082,21.0093333 93.2276667,21.914 93.519,22.88 C93.8103333,23.846 94.4045,24.7123333 95.3015,25.479 C96.1985,26.2456667 97.4673333,26.629 99.108,26.629 C101.331333,26.629 102.918333,26.031 103.869,24.835 L103.869,24.835 L104.03,24.835 L104.03,26.629 L107.549,26.629 Z M100.12,23.616 C98.6786667,23.616 97.7011667,23.2403333 97.1875,22.489 C96.6738333,21.7376667 96.417,20.9633333 96.417,20.166 C96.417,19.3533333 96.6738333,18.5751667 97.1875,17.8315 C97.7011667,17.0878333 98.6786667,16.716 100.12,16.716 C101.5,16.716 102.4545,17.0341667 102.9835,17.6705 C103.5125,18.3068333 103.777,19.1386667 103.777,20.166 C103.777,21.27 103.520167,22.121 103.0065,22.719 C102.492833,23.317 101.530667,23.616 100.12,23.616 Z M115.507,26.629 C117.577,26.629 119.187,26.2341667 120.337,25.4445 C121.487,24.6548333 122.154,23.5546667 122.338,22.144 L122.338,22.144 L118.934,22.144 C118.581333,23.0946667 117.439,23.57 115.507,23.57 C114.387667,23.57 113.548167,23.3591667 112.9885,22.9375 C112.428833,22.5158333 112.087667,21.868 111.965,20.994 L111.965,20.994 L122.384,20.994 C122.43,20.6873333 122.453,20.35 122.453,19.982 C122.453,19.0006667 122.2575,18.05 121.8665,17.13 C121.4755,16.21 120.812333,15.4356667 119.877,14.807 C118.696333,13.9943333 117.239667,13.588 115.507,13.588 C113.299,13.588 111.589333,14.1515 110.378,15.2785 C109.166667,16.4055 108.561,18.0193333 108.561,20.12 C108.561,22.2513333 109.159,23.869 110.355,24.973 C111.551,26.077 113.268333,26.629 115.507,26.629 Z M118.911,18.671 L112.103,18.671 C112.501667,17.3216667 113.636333,16.647 115.507,16.647 C116.626333,16.647 117.4275,16.831 117.9105,17.199 C118.3935,17.567 118.727,18.0576667 118.911,18.671 L118.911,18.671 Z M126.777,26.629 L126.777,20.396 C126.777,19.3073333 127.014667,18.4256667 127.49,17.751 C127.965333,17.0763333 128.885333,16.739 130.25,16.739 C131.262,16.739 132.001833,16.9345 132.4695,17.3255 C132.937167,17.7165 133.209333,18.1305 133.286,18.5675 C133.362667,19.0045 133.401,19.5373333 133.401,20.166 L133.401,20.166 L133.401,26.629 L136.874,26.629 L136.874,20.166 C136.874,19.1846667 136.766667,18.2378333 136.552,17.3255 C136.337333,16.4131667 135.816,15.5851667 134.988,14.8415 C134.16,14.0978333 132.918,13.726 131.262,13.726 C130.173333,13.726 129.2955,13.887 128.6285,14.209 C127.9615,14.531 127.398,14.9986667 126.938,15.612 L126.938,15.612 L126.777,15.612 L126.777,13.726 L123.281,13.726 L123.281,26.629 L126.777,26.629 Z M144.579,26.629 C146.480333,26.629 148.044333,26.2035 149.271,25.3525 C150.497667,24.5015 151.172333,23.3093333 151.295,21.776 L151.295,21.776 L147.868,21.776 C147.561333,22.9106667 146.465,23.478 144.579,23.478 C143.429,23.478 142.5665,23.2096667 141.9915,22.673 C141.4165,22.1363333 141.129,21.3006667 141.129,20.166 C141.129,19.062 141.420333,18.234 142.003,17.682 C142.585667,17.13 143.444333,16.854 144.579,16.854 C146.449667,16.854 147.546,17.4136667 147.868,18.533 L147.868,18.533 L151.295,18.533 C151.157,17.0303333 150.474667,15.8496667 149.248,14.991 C148.021333,14.1323333 146.465,13.703 144.579,13.703 C143.291,13.703 142.125667,13.956 141.083,14.462 C140.040333,14.968 139.216167,15.7078333 138.6105,16.6815 C138.004833,17.6551667 137.702,18.8166667 137.702,20.166 C137.702,21.546 138.004833,22.719 138.6105,23.685 C139.216167,24.651 140.040333,25.3831667 141.083,25.8815 C142.125667,26.3798333 143.291,26.629 144.579,26.629 Z M158.287,31.551 L165.118,13.749 L161.415,13.749 L157.712,23.455 L153.963,13.749 L150.26,13.749 L155.228,26.652 L156.47,26.652 L154.607,31.551 L158.287,31.551 Z" id="trendency"></path>
            </g>
        </g>
    </g>
</svg>