<?xml version="1.0" encoding="utf-8"?>
<!-- Generator: Adobe Illustrator 27.5.0, SVG Export Plug-In . SVG Version: 6.00 Build 0)  -->
<svg version="1.1" id="Réteg_1" xmlns="http://www.w3.org/2000/svg" xmlns:xlink="http://www.w3.org/1999/xlink" x="0px" y="0px"
	 viewBox="0 0 166 34" style="enable-background:new 0 0 166 34;" xml:space="preserve">
<g id="Mobile-Web">
	<g id="header" transform="translate(-20.000000, -56.000000)">
		<g id="Group" transform="translate(20.000000, 53.000000)">
			<g id="logo" transform="translate(0.000000, 3.000000)">
				<path id="Path" d="M21,14.1l0.3-0.3c0.7-0.7,1.7-1,2.6-0.9c0.2,0,0.3,0,0.5,0c1-0.1,2,0.2,2.6,0.9c0.7,0.7,1,1.6,0.9,2.6
					c-0.1,1,0.3,2,1.1,2.7c1.2,1,2.8,0.9,4-0.1c1.3-1.2,1.3-3.2,0.1-4.4c-0.7-0.7-1.6-1-2.4-0.9c-0.9,0.1-1.9-0.3-2.6-0.9
					c-0.7-0.7-1-1.6-0.9-2.6c0.1-0.9-0.2-1.8-0.9-2.5c-0.7-0.7-1.6-1-2.4-0.9C23,6.9,22,6.5,21.4,5.9c-0.7-0.7-1-1.6-0.9-2.6
					c0.1-1-0.3-2-1.1-2.7c-1.2-1-2.8-0.9-4,0.1C14.1,2,14.1,4,15.3,5.2c0.7,0.7,1.6,1,2.4,0.9c0.9-0.1,1.9,0.3,2.6,0.9
					c0.7,0.7,1,1.7,0.9,2.7c0,0.2,0,0.3,0,0.5c0.1,1-0.2,2-0.9,2.7L19.9,13c-0.7,0.7-1.6,1-2.6,0.9s-2,0.3-2.6,1.1
					c-1,1.2-0.9,2.9,0.1,4.1c1.2,1.3,3.1,1.3,4.3,0.1c0.7-0.7,1-1.6,0.9-2.5C19.9,15.6,20.3,14.8,21,14.1z"/>
				<path id="Path_00000085233167023387489650000009568632657451440018_" d="M3,20c1.7,0,3-1.3,3-3c0-1.7-1.3-3-3-3s-3,1.3-3,3
					C0,18.7,1.3,20,3,20z"/>
				<path id="Path_00000153680765982178162090000012817241320939372211_" d="M10,27c1.7,0,3-1.3,3-3s-1.3-3-3-3c-1.7,0-3,1.3-3,3
					S8.3,27,10,27z"/>
				<path id="Path_00000168102848565132735480000007825196183361191327_" d="M17,34c1.7,0,3-1.3,3-3c0-1.7-1.3-3-3-3
					c-1.7,0-3,1.3-3,3C14,32.7,15.3,34,17,34z"/>
				<path id="Path_00000082340717785883978310000004433576079429134984_" d="M10,13c1.7,0,3-1.3,3-3c0-1.7-1.3-3-3-3
					c-1.7,0-3,1.3-3,3C7,11.7,8.3,13,10,13z"/>
				<path id="Path_00000043427936058299540460000004615776834651234438_" d="M24,27c1.7,0,3-1.3,3-3s-1.3-3-3-3c-1.7,0-3,1.3-3,3
					S22.3,27,24,27z"/>
			</g>
			<path id="trendency" d="M49.2,26.6c2.2,0,3.6-0.1,4.2-0.2l0,0V23l-0.8,0c-1,0.1-1.5,0.1-1.8,0.1c-0.6,0-1.1-0.1-1.3-0.3
				c-0.2-0.2-0.3-0.6-0.3-1.3l0,0v-4.8h4.2v-3h-4.2V10h-3.5v3.7H44v3h1.7v5.2c0,0.9,0.1,1.7,0.2,2.3c0.1,0.6,0.4,1.2,0.9,1.7
				C47.4,26.4,48.1,26.6,49.2,26.6z M57.9,26.6v-5.8c0-1,0.3-1.9,0.8-2.7c0.5-0.7,1.4-1.1,2.6-1.1c0.8,0,1.6,0.1,2.3,0.3l0,0
				l0.6-3.3c-0.5-0.1-0.9-0.2-1.2-0.2c-0.3-0.1-0.7-0.1-1.1-0.1c-1,0-1.8,0.1-2.4,0.4c-0.5,0.3-1,0.8-1.4,1.4l0,0h-0.2v-1.9h-3.5
				v12.9H57.9z M70.8,26.6c2.1,0,3.7-0.4,4.8-1.2c1.1-0.8,1.8-1.9,2-3.3l0,0h-3.4c-0.4,1-1.5,1.4-3.4,1.4c-1.1,0-2-0.2-2.5-0.6
				s-0.9-1.1-1-1.9l0,0h10.4c0-0.3,0.1-0.6,0.1-1c0-1-0.2-1.9-0.6-2.9s-1.1-1.7-2-2.3c-1.2-0.8-2.6-1.2-4.4-1.2
				c-2.2,0-3.9,0.6-5.1,1.7c-1.2,1.1-1.8,2.7-1.8,4.8c0,2.1,0.6,3.7,1.8,4.9S68.6,26.6,70.8,26.6z M74.2,18.7h-6.8
				c0.4-1.3,1.5-2,3.4-2c1.1,0,1.9,0.2,2.4,0.6C73.7,17.6,74,18.1,74.2,18.7L74.2,18.7z M82.1,26.6v-6.2c0-1.1,0.2-2,0.7-2.6
				c0.5-0.7,1.4-1,2.8-1c1,0,1.8,0.2,2.2,0.6c0.5,0.4,0.7,0.8,0.8,1.2c0.1,0.4,0.1,1,0.1,1.6l0,0v6.5h3.5v-6.5c0-1-0.1-1.9-0.3-2.8
				c-0.2-0.9-0.7-1.7-1.6-2.5c-0.8-0.7-2.1-1.1-3.7-1.1c-1.1,0-2,0.2-2.6,0.5c-0.7,0.3-1.2,0.8-1.7,1.4l0,0h-0.2v-1.9h-3.5v12.9
				H82.1z M107.5,26.6V10H104v5.6h-0.2c-1-1.3-2.5-1.9-4.7-1.9c-2.4,0-4,0.7-4.8,2.1c-0.8,1.4-1.2,2.8-1.2,4.4
				c0,0.8,0.1,1.7,0.4,2.7c0.3,1,0.9,1.8,1.8,2.6c0.9,0.8,2.2,1.1,3.8,1.1c2.2,0,3.8-0.6,4.8-1.8l0,0h0.2v1.8H107.5z M100.1,23.6
				c-1.4,0-2.4-0.4-2.9-1.1s-0.8-1.5-0.8-2.3c0-0.8,0.3-1.6,0.8-2.3c0.5-0.7,1.5-1.1,2.9-1.1c1.4,0,2.3,0.3,2.9,1s0.8,1.5,0.8,2.5
				c0,1.1-0.3,2-0.8,2.6S101.5,23.6,100.1,23.6z M115.5,26.6c2.1,0,3.7-0.4,4.8-1.2s1.8-1.9,2-3.3l0,0h-3.4c-0.4,1-1.5,1.4-3.4,1.4
				c-1.1,0-2-0.2-2.5-0.6c-0.6-0.4-0.9-1.1-1-1.9l0,0h10.4c0-0.3,0.1-0.6,0.1-1c0-1-0.2-1.9-0.6-2.9s-1.1-1.7-2-2.3
				c-1.2-0.8-2.6-1.2-4.4-1.2c-2.2,0-3.9,0.6-5.1,1.7s-1.8,2.7-1.8,4.8c0,2.1,0.6,3.7,1.8,4.9C111.6,26.1,113.3,26.6,115.5,26.6z
				 M118.9,18.7h-6.8c0.4-1.3,1.5-2,3.4-2c1.1,0,1.9,0.2,2.4,0.6S118.7,18.1,118.9,18.7L118.9,18.7z M126.8,26.6v-6.2
				c0-1.1,0.2-2,0.7-2.6c0.5-0.7,1.4-1,2.8-1c1,0,1.8,0.2,2.2,0.6c0.5,0.4,0.7,0.8,0.8,1.2c0.1,0.4,0.1,1,0.1,1.6l0,0v6.5h3.5v-6.5
				c0-1-0.1-1.9-0.3-2.8c-0.2-0.9-0.7-1.7-1.6-2.5c-0.8-0.7-2.1-1.1-3.7-1.1c-1.1,0-2,0.2-2.6,0.5c-0.7,0.3-1.2,0.8-1.7,1.4l0,0
				h-0.2v-1.9h-3.5v12.9H126.8z M144.6,26.6c1.9,0,3.5-0.4,4.7-1.3c1.2-0.9,1.9-2,2-3.6l0,0h-3.4c-0.3,1.1-1.4,1.7-3.3,1.7
				c-1.1,0-2-0.3-2.6-0.8s-0.9-1.4-0.9-2.5c0-1.1,0.3-1.9,0.9-2.5c0.6-0.6,1.4-0.8,2.6-0.8c1.9,0,3,0.6,3.3,1.7l0,0h3.4
				c-0.1-1.5-0.8-2.7-2-3.5s-2.8-1.3-4.7-1.3c-1.3,0-2.5,0.3-3.5,0.8c-1,0.5-1.9,1.2-2.5,2.2s-0.9,2.1-0.9,3.5
				c0,1.4,0.3,2.6,0.9,3.5s1.4,1.7,2.5,2.2C142.1,26.4,143.3,26.6,144.6,26.6z M158.3,31.6l6.8-17.8h-3.7l-3.7,9.7l-3.7-9.7h-3.7
				l5,12.9h1.2l-1.9,4.9H158.3z"/>
		</g>
	</g>
</g>
</svg>
